<svg aria-hidden="true" style="position: absolute; width: 0; height: 0; overflow: hidden;" version="1.1"
    xmlns="http://www.w3.org/2000/svg" xmlns:xlink="http://www.w3.org/1999/xlink">
    <defs>
        <symbol id="icon-arrow" viewBox="0 0 32 32">
            <path fill="none" stroke="#777" style="stroke: var(--color1, #777)" stroke-linejoin="round"
                stroke-linecap="round" stroke-miterlimit="4" stroke-width="2.0800" d="M8 24l16-16"></path>
            <path fill="none" stroke="#777" style="stroke: var(--color1, #777)" stroke-linejoin="round"
                stroke-linecap="round" stroke-miterlimit="4" stroke-width="2.0800" d="M13.333 8h10.667v10.667"></path>
        </symbol>

        <symbol id="icon-vector" viewBox="0 0 34 32">
            <path
                d="M16.127 6.678l11.784-0.368-2.408 11.541-3.876-4.619-16.127 13.532-1.624-1.935 16.127-13.532-3.876-4.619z">
            </path>
        </symbol>
<symbol id="icon-hero_arrow1x" viewBox="0 0 58 32">
    <path d="M40 2.144l17.6 13.856-17.6 13.856v-11.456h-40v-4.8h40v-11.456z"></path>
</symbol>
<symbol id="icon-hero_star1x" viewBox="0 0 32 32">
    <path stroke-linejoin="round" stroke-linecap="round" stroke-miterlimit="4" stroke-width="2.4"
        d="M16 2.667l4.12 8.347 9.213 1.347-6.667 6.493 1.573 9.173-8.24-4.333-8.24 4.333 1.573-9.173-6.667-6.493 9.213-1.347 4.12-8.347z">
    </path>
</symbol>
    </defs>
</svg>
<symbol id="icon-hero_arrow1x" viewBox="0 0 58 32">
    <path d="M40 2.144l17.6 13.856-17.6 13.856v-11.456h-40v-4.8h40v-11.456z"></path>
</symbol>
<symbol id="icon-hero_star1x" viewBox="0 0 32 32">
    <path stroke-linejoin="round" stroke-linecap="round" stroke-miterlimit="4" stroke-width="2.4"
        d="M16 2.667l4.12 8.347 9.213 1.347-6.667 6.493 1.573 9.173-8.24-4.333-8.24 4.333 1.573-9.173-6.667-6.493 9.213-1.347 4.12-8.347z">
    </path>
</symbol>

        <symbol id="camera-sing-up" viewBox="0 0 32 32">
            <path
                d="M21 17a4.997 4.997 0 0 1-5 5 5.002 5.002 0 0 1-5-5 4.998 4.998 0 0 1 8.536-3.536A4.998 4.998 0 0 1 21 17z" />
            <path
                d="M4 8a4.003 4.003 0 0 0-4 4v12a4.003 4.003 0 0 0 4 4h24a4.003 4.003 0 0 0 4-4V12a4.003 4.003 0 0 0-4-4h-2.344a4 4 0 0 1-2.828-1.172l-1.656-1.656A4 4 0 0 0 18.344 4h-4.688a4 4 0 0 0-2.828 1.172L9.172 6.828A4 4 0 0 1 6.344 8H4zm1 4a.997.997 0 0 1-1-1 .997.997 0 0 1 1-1 .997.997 0 0 1 1 1 .997.997 0 0 1-1 1zm18 5a6.999 6.999 0 1 1-14 0 7.003 7.003 0 0 1 7-7 7.003 7.003 0 0 1 7 7z" />
        </symbol>
        <symbol id="burger-menu" viewBox="0 0 47 32">
            <path stroke-linecap="round" stroke-width="2.909"
                d="M8.538 5.333h36.553M8.538 24.727h36.553M19.668 15.03h25.423" />
        </symbol>
    </defs>
</svg>

